<svg width="740" height="155" viewBox="0 0 740 155" fill="none" xmlns="http://www.w3.org/2000/svg">
<g clip-path="url(#clip0_2_6)">
<path d="M193.528 87.08C186.832 87.08 181.036 85.604 176.14 82.652C171.244 79.7 167.428 75.524 164.692 70.124C161.956 64.652 160.588 58.064 160.588 50.36C160.588 42.8 161.992 36.284 164.8 30.812C167.68 25.34 171.712 21.128 176.896 18.176C182.152 15.152 188.164 13.64 194.932 13.64C202.348 13.64 208.324 15.008 212.86 17.744C217.468 20.48 221.14 24.728 223.876 30.488L213.184 35.564C211.816 31.604 209.548 28.652 206.38 26.708C203.284 24.692 199.504 23.684 195.04 23.684C190.576 23.684 186.652 24.728 183.268 26.816C179.956 28.904 177.364 31.964 175.492 35.996C173.62 39.956 172.684 44.744 172.684 50.36C172.684 56.048 173.512 60.908 175.168 64.94C176.824 68.9 179.308 71.924 182.62 74.012C186.004 76.1 190.144 77.144 195.04 77.144C197.704 77.144 200.188 76.82 202.492 76.172C204.796 75.452 206.812 74.444 208.54 73.148C210.268 71.78 211.6 70.088 212.536 68.072C213.544 65.984 214.048 63.536 214.048 60.728V58.676H193.312V49.28H224.308V86H215.668L215.02 71.636L217.18 72.716C215.452 77.252 212.572 80.78 208.54 83.3C204.58 85.82 199.576 87.08 193.528 87.08ZM272.328 13.64C279.24 13.64 285.216 15.116 290.256 18.068C295.296 21.02 299.184 25.232 301.92 30.704C304.656 36.176 306.024 42.728 306.024 50.36C306.024 57.992 304.656 64.544 301.92 70.016C299.184 75.488 295.296 79.7 290.256 82.652C285.216 85.604 279.24 87.08 272.328 87.08C265.488 87.08 259.548 85.604 254.508 82.652C249.468 79.7 245.58 75.488 242.844 70.016C240.108 64.544 238.74 57.992 238.74 50.36C238.74 42.728 240.108 36.176 242.844 30.704C245.58 25.232 249.468 21.02 254.508 18.068C259.548 15.116 265.488 13.64 272.328 13.64ZM272.328 23.684C267.864 23.684 264.012 24.728 260.772 26.816C257.604 28.904 255.156 31.928 253.428 35.888C251.7 39.848 250.836 44.672 250.836 50.36C250.836 55.976 251.7 60.8 253.428 64.832C255.156 68.792 257.604 71.816 260.772 73.904C264.012 75.992 267.864 77.036 272.328 77.036C276.864 77.036 280.716 75.992 283.884 73.904C287.124 71.816 289.608 68.792 291.336 64.832C293.064 60.8 293.928 55.976 293.928 50.36C293.928 44.672 293.064 39.848 291.336 35.888C289.608 31.928 287.124 28.904 283.884 26.816C280.716 24.728 276.864 23.684 272.328 23.684ZM352.801 13.64C359.713 13.64 365.689 15.116 370.729 18.068C375.769 21.02 379.657 25.232 382.393 30.704C385.129 36.176 386.497 42.728 386.497 50.36C386.497 57.992 385.129 64.544 382.393 70.016C379.657 75.488 375.769 79.7 370.729 82.652C365.689 85.604 359.713 87.08 352.801 87.08C345.961 87.08 340.021 85.604 334.981 82.652C329.941 79.7 326.053 75.488 323.317 70.016C320.581 64.544 319.213 57.992 319.213 50.36C319.213 42.728 320.581 36.176 323.317 30.704C326.053 25.232 329.941 21.02 334.981 18.068C340.021 15.116 345.961 13.64 352.801 13.64ZM352.801 23.684C348.337 23.684 344.485 24.728 341.245 26.816C338.077 28.904 335.629 31.928 333.901 35.888C332.173 39.848 331.309 44.672 331.309 50.36C331.309 55.976 332.173 60.8 333.901 64.832C335.629 68.792 338.077 71.816 341.245 73.904C344.485 75.992 348.337 77.036 352.801 77.036C357.337 77.036 361.189 75.992 364.357 73.904C367.597 71.816 370.081 68.792 371.809 64.832C373.537 60.8 374.401 55.976 374.401 50.36C374.401 44.672 373.537 39.848 371.809 35.888C370.081 31.928 367.597 28.904 364.357 26.816C361.189 24.728 357.337 23.684 352.801 23.684ZM428.846 14.72C440.006 14.72 448.682 17.816 454.874 24.008C461.138 30.128 464.27 38.912 464.27 50.36C464.27 61.808 461.138 70.628 454.874 76.82C448.682 82.94 440.006 86 428.846 86H403.682V14.72H428.846ZM428.846 76.172C436.406 76.172 442.166 73.94 446.126 69.476C450.158 64.94 452.174 58.568 452.174 50.36C452.174 42.152 450.158 35.816 446.126 31.352C442.166 26.816 436.406 24.548 428.846 24.548H415.238V76.172H428.846ZM505.501 13.64C511.909 13.64 517.453 14.864 522.133 17.312C526.813 19.688 530.773 23.216 534.013 27.896L526.237 35.348C523.501 31.172 520.405 28.184 516.949 26.384C513.565 24.512 509.533 23.576 504.853 23.576C501.397 23.576 498.553 24.044 496.321 24.98C494.089 25.916 492.433 27.176 491.353 28.76C490.345 30.272 489.841 32 489.841 33.944C489.841 36.176 490.597 38.12 492.109 39.776C493.693 41.432 496.609 42.728 500.857 43.664L515.329 46.904C522.241 48.416 527.137 50.72 530.017 53.816C532.897 56.912 534.337 60.836 534.337 65.588C534.337 69.98 533.149 73.796 530.773 77.036C528.397 80.276 525.085 82.76 520.837 84.488C516.661 86.216 511.729 87.08 506.041 87.08C501.001 87.08 496.465 86.432 492.433 85.136C488.401 83.84 484.873 82.076 481.849 79.844C478.825 77.612 476.341 75.056 474.397 72.176L482.389 64.184C483.901 66.704 485.809 68.972 488.113 70.988C490.417 72.932 493.081 74.444 496.105 75.524C499.201 76.604 502.621 77.144 506.365 77.144C509.677 77.144 512.521 76.748 514.897 75.956C517.345 75.164 519.181 74.012 520.405 72.5C521.701 70.916 522.349 69.044 522.349 66.884C522.349 64.796 521.629 62.96 520.189 61.376C518.821 59.792 516.229 58.568 512.413 57.704L496.753 54.14C492.433 53.204 488.869 51.872 486.061 50.144C483.253 48.416 481.165 46.328 479.797 43.88C478.429 41.36 477.745 38.552 477.745 35.456C477.745 31.424 478.825 27.788 480.985 24.548C483.217 21.236 486.421 18.608 490.597 16.664C494.773 14.648 499.741 13.64 505.501 13.64ZM600.885 14.72V24.656H576.477V86H564.921V24.656H540.513V14.72H600.885ZM664.416 86H652.212L645.408 67.316H615.492L608.688 86H596.808L623.7 14.72H637.524L664.416 86ZM618.732 57.92H642.168L630.504 24.656L618.732 57.92ZM706.109 14.72C713.741 14.72 719.789 16.628 724.253 20.444C728.789 24.26 731.057 29.408 731.057 35.888C731.057 42.584 728.789 47.768 724.253 51.44C719.789 55.04 713.741 56.84 706.109 56.84L705.029 57.488H688.505V86H677.057V14.72H706.109ZM705.245 47.876C709.925 47.876 713.381 46.94 715.613 45.068C717.917 43.124 719.069 40.172 719.069 36.212C719.069 32.324 717.917 29.408 715.613 27.464C713.381 25.52 709.925 24.548 705.245 24.548H688.505V47.876H705.245ZM712.049 50.252L735.269 86H721.985L702.113 54.788L712.049 50.252Z" fill="#F5F5F5"/>
<path d="M302.909 106.26C306.939 106.26 310.072 107.378 312.308 109.614C314.57 111.824 315.701 114.996 315.701 119.13C315.701 123.264 314.57 126.449 312.308 128.685C310.072 130.895 306.939 132 302.909 132H293.822V106.26H302.909ZM302.909 128.451C305.639 128.451 307.719 127.645 309.149 126.033C310.605 124.395 311.333 122.094 311.333 119.13C311.333 116.166 310.605 113.878 309.149 112.266C307.719 110.628 305.639 109.809 302.909 109.809H297.995V128.451H302.909ZM321.891 132V106.26H340.533V109.848H326.064V117.258H337.374V120.768H326.064V128.412H341.079V132H321.891ZM373.01 106.26V132H369.149V117.102L369.461 110.004H369.422L361.583 132H358.112L350.273 110.004H350.234L350.546 117.102V132H346.685V106.26H352.886L358.073 121.158L359.867 127.281H359.945L361.778 121.158L366.926 106.26H373.01ZM391.344 105.87C393.84 105.87 395.998 106.403 397.818 107.469C399.638 108.535 401.042 110.056 402.03 112.032C403.018 114.008 403.512 116.374 403.512 119.13C403.512 121.886 403.018 124.252 402.03 126.228C401.042 128.204 399.638 129.725 397.818 130.791C395.998 131.857 393.84 132.39 391.344 132.39C388.874 132.39 386.729 131.857 384.909 130.791C383.089 129.725 381.685 128.204 380.697 126.228C379.709 124.252 379.215 121.886 379.215 119.13C379.215 116.374 379.709 114.008 380.697 112.032C381.685 110.056 383.089 108.535 384.909 107.469C386.729 106.403 388.874 105.87 391.344 105.87ZM391.344 109.497C389.732 109.497 388.341 109.874 387.171 110.628C386.027 111.382 385.143 112.474 384.519 113.904C383.895 115.334 383.583 117.076 383.583 119.13C383.583 121.158 383.895 122.9 384.519 124.356C385.143 125.786 386.027 126.878 387.171 127.632C388.341 128.386 389.732 128.763 391.344 128.763C392.982 128.763 394.373 128.386 395.517 127.632C396.687 126.878 397.584 125.786 398.208 124.356C398.832 122.9 399.144 121.158 399.144 119.13C399.144 117.076 398.832 115.334 398.208 113.904C397.584 112.474 396.687 111.382 395.517 110.628C394.373 109.874 392.982 109.497 391.344 109.497ZM413.891 128.412H428.087V132H409.718V106.26H413.891V128.412ZM437.237 106.26V132H433.064V106.26H437.237ZM464.02 106.26V109.848H455.206V132H451.033V109.848H442.219V106.26H464.02ZM473.19 106.26V132H469.017V106.26H473.19ZM491.51 105.87C494.006 105.87 496.164 106.403 497.984 107.469C499.804 108.535 501.208 110.056 502.196 112.032C503.184 114.008 503.678 116.374 503.678 119.13C503.678 121.886 503.184 124.252 502.196 126.228C501.208 128.204 499.804 129.725 497.984 130.791C496.164 131.857 494.006 132.39 491.51 132.39C489.04 132.39 486.895 131.857 485.075 130.791C483.255 129.725 481.851 128.204 480.863 126.228C479.875 124.252 479.381 121.886 479.381 119.13C479.381 116.374 479.875 114.008 480.863 112.032C481.851 110.056 483.255 108.535 485.075 107.469C486.895 106.403 489.04 105.87 491.51 105.87ZM491.51 109.497C489.898 109.497 488.507 109.874 487.337 110.628C486.193 111.382 485.309 112.474 484.685 113.904C484.061 115.334 483.749 117.076 483.749 119.13C483.749 121.158 484.061 122.9 484.685 124.356C485.309 125.786 486.193 126.878 487.337 127.632C488.507 128.386 489.898 128.763 491.51 128.763C493.148 128.763 494.539 128.386 495.683 127.632C496.853 126.878 497.75 125.786 498.374 124.356C498.998 122.9 499.31 121.158 499.31 119.13C499.31 117.076 498.998 115.334 498.374 113.904C497.75 112.474 496.853 111.382 495.683 110.628C494.539 109.874 493.148 109.497 491.51 109.497ZM530.983 106.26V132H526.03L516.085 115.776L513.589 111.213H513.55L513.706 115.386V132H509.884V106.26H514.798L524.704 122.445L527.239 127.086H527.278L527.122 122.874V106.26H530.983Z" fill="#F5F5F5"/>
<path fill-rule="evenodd" clip-rule="evenodd" d="M0.18226 58.613L0.36452 116.225L34.3681 135.613L68.3716 155L102.004 135.259L135.635 115.517L135.818 58.2586L136 1H68H0L0.18226 58.613ZM125.139 61.4859L124.956 110.611L96.3037 126.851L67.6511 143.091L39.3475 126.858L11.0438 110.623L10.8608 61.4923L10.6779 12.3611H68H125.322L125.139 61.4859ZM22.0791 64.4902V105.258L39.6999 114.994C49.3917 120.349 58.3616 125.355 59.6346 126.119L61.9484 127.508V94.7875V62.066H53.405H44.8615V67.7466V73.4271L51.4471 73.4591L58.0327 73.4911L54.8289 75.1611L51.6251 76.8305L51.2691 92.1077L50.9131 107.385L42.3697 102.629L33.8263 97.872L33.6412 66.4777L33.4554 35.0834H42.3626H51.2691V38.2787V41.474H56.6088H61.9484V32.5981V23.7222H42.0137H22.0791V64.4902ZM73.3396 48.5747V73.4271H87.9518H102.564L102.369 85.274L102.174 97.1208L93.6303 102.26L85.0869 107.399L84.8911 96.0933L84.6953 84.7883H79.0175H73.3396V106.051V127.314L90.9605 116.988C100.652 111.309 109.78 105.974 111.245 105.133L113.91 103.605L113.915 83.1906L113.921 62.7761L100.928 62.7832L87.9347 62.7903L86.3641 65.446L84.7943 68.1016L84.7622 51.5925L84.7309 35.0834H93.6303H102.53V43.9592V52.8351H108.225H113.921V38.2787V23.7222H93.6303H73.3396V48.5747Z" fill="#F5F5F5"/>
<line x1="168" y1="120" x2="273" y2="120" stroke="#F5F5F5" stroke-width="4"/>
<line x1="168" y1="110" x2="273" y2="110" stroke="#F5F5F5" stroke-width="4"/>
<line x1="168" y1="130" x2="273" y2="130" stroke="#F5F5F5" stroke-width="4"/>
<line x1="553" y1="120" x2="736" y2="120" stroke="#F5F5F5" stroke-width="4"/>
<line x1="553" y1="130" x2="736" y2="130" stroke="#F5F5F5" stroke-width="4"/>
<line x1="553" y1="110" x2="736" y2="110" stroke="#F5F5F5" stroke-width="4"/>
</g>
<defs>
<clipPath id="clip0_2_6">
<rect width="740" height="155" fill="white"/>
</clipPath>
</defs>
</svg>
